<svg width="175" height="756" viewBox="0 0 175 756" fill="none" xmlns="http://www.w3.org/2000/svg">
<mask id="mask0_135_57" style="mask-type:alpha" maskUnits="userSpaceOnUse" x="0" y="-4" width="175" height="738">
<path d="M144.985 -3.91664H155.61L163.739 46H155.895L154.469 36.088V36.2306H145.555L144.129 46H136.856L144.985 -3.91664ZM153.542 29.4562L150.048 4.78312H149.905L146.482 29.4562H153.542ZM150.048 132.713C146.245 132.713 143.345 131.643 141.348 129.504C139.352 127.317 138.353 124.203 138.353 120.163V93.9207C138.353 89.8799 139.352 86.7898 141.348 84.6505C143.345 82.4637 146.245 81.3703 150.048 81.3703C153.851 81.3703 156.751 82.4637 158.748 84.6505C160.744 86.7898 161.743 89.8799 161.743 93.9207V98.1993H154.327V93.4216C154.327 90.1413 152.972 88.5012 150.262 88.5012C147.552 88.5012 146.197 90.1413 146.197 93.4216V120.733C146.197 123.966 147.552 125.582 150.262 125.582C152.972 125.582 154.327 123.966 154.327 120.733V110.964H150.405V103.833H161.743V120.163C161.743 124.203 160.744 127.317 158.748 129.504C156.751 131.643 153.851 132.713 150.048 132.713ZM138.924 168.083H150.547C154.588 168.083 157.535 169.034 159.39 170.936C161.244 172.79 162.171 175.666 162.171 179.564V182.63C162.171 187.812 160.459 191.093 157.036 192.471V192.614C158.938 193.184 160.269 194.349 161.03 196.108C161.838 197.867 162.242 200.22 162.242 203.168V211.939C162.242 213.365 162.289 214.53 162.385 215.433C162.48 216.289 162.717 217.144 163.098 218H155.111C154.826 217.192 154.636 216.431 154.54 215.718C154.445 215.005 154.398 213.721 154.398 211.867V202.74C154.398 200.458 154.018 198.865 153.257 197.962C152.544 197.059 151.284 196.607 149.477 196.607H146.768V218H138.924V168.083ZM149.62 189.476C151.189 189.476 152.354 189.072 153.114 188.264C153.922 187.456 154.327 186.101 154.327 184.199V180.349C154.327 178.542 153.994 177.235 153.328 176.427C152.71 175.618 151.712 175.214 150.333 175.214H146.768V189.476H149.62ZM150.262 304.713C146.411 304.713 143.464 303.62 141.42 301.433C139.375 299.246 138.353 296.156 138.353 292.163V265.921C138.353 261.927 139.375 258.837 141.42 256.65C143.464 254.464 146.411 253.37 150.262 253.37C154.113 253.37 157.06 254.464 159.104 256.65C161.148 258.837 162.171 261.927 162.171 265.921V292.163C162.171 296.156 161.148 299.246 159.104 301.433C157.06 303.62 154.113 304.713 150.262 304.713ZM150.262 297.582C152.972 297.582 154.327 295.942 154.327 292.662V265.422C154.327 262.141 152.972 260.501 150.262 260.501C147.552 260.501 146.197 262.141 146.197 265.422V292.662C146.197 295.942 147.552 297.582 150.262 297.582ZM137.07 340.083H144.628L148.123 378.448H148.265L151.973 340.083H160.53L164.239 378.448H164.381L167.875 340.083H174.65L169.587 390H159.817L156.252 356.342H156.109L152.544 390H142.133L137.07 340.083Z" fill="white"/>
<path d="M110.985 82.0834H121.61L129.739 132H121.895L120.469 122.088V122.231H111.555L110.129 132H102.856L110.985 82.0834ZM119.542 115.456L116.048 90.7831H115.905L112.482 115.456H119.542ZM116.048 218.713C112.245 218.713 109.345 217.643 107.348 215.504C105.352 213.317 104.353 210.203 104.353 206.163V179.921C104.353 175.88 105.352 172.79 107.348 170.65C109.345 168.464 112.245 167.37 116.048 167.37C119.851 167.37 122.751 168.464 124.748 170.65C126.744 172.79 127.743 175.88 127.743 179.921V184.199H120.327V179.422C120.327 176.141 118.972 174.501 116.262 174.501C113.552 174.501 112.197 176.141 112.197 179.422V206.733C112.197 209.966 113.552 211.582 116.262 211.582C118.972 211.582 120.327 209.966 120.327 206.733V196.964H116.405V189.833H127.743V206.163C127.743 210.203 126.744 213.317 124.748 215.504C122.751 217.643 119.851 218.713 116.048 218.713ZM104.924 254.083H116.547C120.588 254.083 123.535 255.034 125.39 256.936C127.244 258.79 128.171 261.666 128.171 265.564V268.63C128.171 273.812 126.459 277.093 123.036 278.471V278.614C124.938 279.184 126.269 280.349 127.03 282.108C127.838 283.867 128.242 286.22 128.242 289.168V297.939C128.242 299.365 128.289 300.53 128.385 301.433C128.48 302.289 128.717 303.144 129.098 304H121.111C120.826 303.192 120.636 302.431 120.54 301.718C120.445 301.005 120.398 299.721 120.398 297.867V288.74C120.398 286.458 120.018 284.865 119.257 283.962C118.544 283.059 117.284 282.607 115.477 282.607H112.768V304H104.924V254.083ZM115.62 275.476C117.189 275.476 118.354 275.072 119.114 274.264C119.922 273.456 120.327 272.101 120.327 270.199V266.349C120.327 264.542 119.994 263.235 119.328 262.427C118.71 261.618 117.712 261.214 116.333 261.214H112.768V275.476H115.62ZM116.262 390.713C112.411 390.713 109.464 389.62 107.42 387.433C105.375 385.246 104.353 382.156 104.353 378.163V351.921C104.353 347.927 105.375 344.837 107.42 342.65C109.464 340.464 112.411 339.37 116.262 339.37C120.113 339.37 123.06 340.464 125.104 342.65C127.148 344.837 128.171 347.927 128.171 351.921V378.163C128.171 382.156 127.148 385.246 125.104 387.433C123.06 389.62 120.113 390.713 116.262 390.713ZM116.262 383.582C118.972 383.582 120.327 381.942 120.327 378.662V351.422C120.327 348.141 118.972 346.501 116.262 346.501C113.552 346.501 112.197 348.141 112.197 351.422V378.662C112.197 381.942 113.552 383.582 116.262 383.582ZM103.07 426.083H110.628L114.123 464.448H114.265L117.973 426.083H126.53L130.239 464.448H130.381L133.875 426.083H140.65L135.587 476H125.817L122.252 442.342H122.109L118.544 476H108.133L103.07 426.083Z" fill="white"/>
<path d="M77.985 168.083H88.6101L96.7394 218H88.8953L87.4692 208.088V208.231H78.5555L77.1293 218H69.8557L77.985 168.083ZM86.5421 201.456L83.048 176.783H82.9054L79.4825 201.456H86.5421ZM83.048 304.713C79.2448 304.713 76.3449 303.643 74.3482 301.504C72.3515 299.317 71.3532 296.203 71.3532 292.163V265.921C71.3532 261.88 72.3515 258.79 74.3482 256.65C76.3449 254.464 79.2448 253.37 83.048 253.37C86.8511 253.37 89.7511 254.464 91.7477 256.65C93.7444 258.79 94.7427 261.88 94.7427 265.921V270.199H87.3265V265.422C87.3265 262.141 85.9717 260.501 83.2619 260.501C80.5521 260.501 79.1973 262.141 79.1973 265.422V292.733C79.1973 295.966 80.5521 297.582 83.2619 297.582C85.9717 297.582 87.3265 295.966 87.3265 292.733V282.964H83.4045V275.833H94.7427V292.163C94.7427 296.203 93.7444 299.317 91.7477 301.504C89.7511 303.643 86.8511 304.713 83.048 304.713ZM71.9237 340.083H83.5471C87.588 340.083 90.5355 341.034 92.3895 342.936C94.2436 344.79 95.1706 347.666 95.1706 351.564V354.63C95.1706 359.812 93.4592 363.093 90.0363 364.471V364.614C91.9379 365.184 93.269 366.349 94.0296 368.108C94.8378 369.867 95.2419 372.22 95.2419 375.168V383.939C95.2419 385.365 95.2894 386.53 95.3845 387.433C95.4796 388.289 95.7173 389.144 96.0976 390H88.1109C87.8257 389.192 87.6355 388.431 87.5405 387.718C87.4454 387.005 87.3978 385.721 87.3978 383.867V374.74C87.3978 372.458 87.0175 370.865 86.2569 369.962C85.5438 369.059 84.284 368.607 82.4775 368.607H79.7677V390H71.9237V340.083ZM82.6201 361.476C84.1889 361.476 85.3536 361.072 86.1143 360.264C86.9225 359.456 87.3265 358.101 87.3265 356.199V352.349C87.3265 350.542 86.9938 349.235 86.3282 348.427C85.7102 347.618 84.7119 347.214 83.3332 347.214H79.7677V361.476H82.6201ZM83.2619 476.713C79.4112 476.713 76.4637 475.62 74.4195 473.433C72.3753 471.246 71.3532 468.156 71.3532 464.163V437.921C71.3532 433.927 72.3753 430.837 74.4195 428.65C76.4637 426.464 79.4112 425.37 83.2619 425.37C87.1126 425.37 90.0601 426.464 92.1043 428.65C94.1485 430.837 95.1706 433.927 95.1706 437.921V464.163C95.1706 468.156 94.1485 471.246 92.1043 473.433C90.0601 475.62 87.1126 476.713 83.2619 476.713ZM83.2619 469.582C85.9717 469.582 87.3265 467.942 87.3265 464.662V437.422C87.3265 434.141 85.9717 432.501 83.2619 432.501C80.5521 432.501 79.1973 434.141 79.1973 437.422V464.662C79.1973 467.942 80.5521 469.582 83.2619 469.582ZM70.0696 512.083H77.6284L81.1226 550.448H81.2652L84.9733 512.083H93.5305L97.2386 550.448H97.3812L100.875 512.083H107.65L102.587 562H92.8174L89.2519 528.342H89.1093L85.5438 562H75.1326L70.0696 512.083Z" fill="white"/>
<path d="M43.985 254.083H54.6101L62.7394 304H54.8953L53.4692 294.088V294.231H44.5555L43.1293 304H35.8557L43.985 254.083ZM52.5421 287.456L49.048 262.783H48.9054L45.4825 287.456H52.5421ZM49.048 390.713C45.2448 390.713 42.3449 389.643 40.3482 387.504C38.3515 385.317 37.3532 382.203 37.3532 378.163V351.921C37.3532 347.88 38.3515 344.79 40.3482 342.65C42.3449 340.464 45.2448 339.37 49.048 339.37C52.8511 339.37 55.7511 340.464 57.7477 342.65C59.7444 344.79 60.7427 347.88 60.7427 351.921V356.199H53.3265V351.422C53.3265 348.141 51.9717 346.501 49.2619 346.501C46.5521 346.501 45.1973 348.141 45.1973 351.422V378.733C45.1973 381.966 46.5521 383.582 49.2619 383.582C51.9717 383.582 53.3265 381.966 53.3265 378.733V368.964H49.4045V361.833H60.7427V378.163C60.7427 382.203 59.7444 385.317 57.7477 387.504C55.7511 389.643 52.8511 390.713 49.048 390.713ZM37.9237 426.083H49.5471C53.588 426.083 56.5355 427.034 58.3895 428.936C60.2436 430.79 61.1706 433.666 61.1706 437.564V440.63C61.1706 445.812 59.4592 449.093 56.0363 450.471V450.614C57.9379 451.184 59.269 452.349 60.0296 454.108C60.8378 455.867 61.2419 458.22 61.2419 461.168V469.939C61.2419 471.365 61.2894 472.53 61.3845 473.433C61.4796 474.289 61.7173 475.144 62.0976 476H54.1109C53.8257 475.192 53.6355 474.431 53.5405 473.718C53.4454 473.005 53.3978 471.721 53.3978 469.867V460.74C53.3978 458.458 53.0175 456.865 52.2569 455.962C51.5438 455.059 50.284 454.607 48.4775 454.607H45.7677V476H37.9237V426.083ZM48.6201 447.476C50.1889 447.476 51.3536 447.072 52.1143 446.264C52.9225 445.456 53.3265 444.101 53.3265 442.199V438.349C53.3265 436.542 52.9938 435.235 52.3282 434.427C51.7102 433.618 50.7119 433.214 49.3332 433.214H45.7677V447.476H48.6201ZM49.2619 562.713C45.4112 562.713 42.4637 561.62 40.4195 559.433C38.3753 557.246 37.3532 554.156 37.3532 550.163V523.921C37.3532 519.927 38.3753 516.837 40.4195 514.65C42.4637 512.464 45.4112 511.37 49.2619 511.37C53.1126 511.37 56.0601 512.464 58.1043 514.65C60.1485 516.837 61.1706 519.927 61.1706 523.921V550.163C61.1706 554.156 60.1485 557.246 58.1043 559.433C56.0601 561.62 53.1126 562.713 49.2619 562.713ZM49.2619 555.582C51.9717 555.582 53.3265 553.942 53.3265 550.662V523.422C53.3265 520.141 51.9717 518.501 49.2619 518.501C46.5521 518.501 45.1973 520.141 45.1973 523.422V550.662C45.1973 553.942 46.5521 555.582 49.2619 555.582ZM36.0696 598.083H43.6284L47.1226 636.448H47.2652L50.9733 598.083H59.5305L63.2386 636.448H63.3812L66.8753 598.083H73.6497L68.5868 648H58.8174L55.2519 614.342H55.1093L51.5438 648H41.1326L36.0696 598.083Z" fill="white"/>
<path d="M8.985 340.083H19.6101L27.7394 390H19.8953L18.4692 380.088V380.231H9.55547L8.12928 390H0.855714L8.985 340.083ZM17.5421 373.456L14.048 348.783H13.9054L10.4825 373.456H17.5421ZM14.048 476.713C10.2448 476.713 7.34488 475.643 5.34821 473.504C3.35155 471.317 2.35321 468.203 2.35321 464.163V437.921C2.35321 433.88 3.35155 430.79 5.34821 428.65C7.34488 426.464 10.2448 425.37 14.048 425.37C17.8511 425.37 20.7511 426.464 22.7477 428.65C24.7444 430.79 25.7427 433.88 25.7427 437.921V442.199H18.3265V437.422C18.3265 434.141 16.9717 432.501 14.2619 432.501C11.5521 432.501 10.1973 434.141 10.1973 437.422V464.733C10.1973 467.966 11.5521 469.582 14.2619 469.582C16.9717 469.582 18.3265 467.966 18.3265 464.733V454.964H14.4045V447.833H25.7427V464.163C25.7427 468.203 24.7444 471.317 22.7477 473.504C20.7511 475.643 17.8511 476.713 14.048 476.713ZM2.92369 512.083H14.5471C18.588 512.083 21.5355 513.034 23.3895 514.936C25.2436 516.79 26.1706 519.666 26.1706 523.564V526.63C26.1706 531.812 24.4592 535.093 21.0363 536.471V536.614C22.9379 537.184 24.269 538.349 25.0296 540.108C25.8378 541.867 26.2419 544.22 26.2419 547.168V555.939C26.2419 557.365 26.2894 558.53 26.3845 559.433C26.4796 560.289 26.7173 561.144 27.0976 562H19.1109C18.8257 561.192 18.6355 560.431 18.5405 559.718C18.4454 559.005 18.3978 557.721 18.3978 555.867V546.74C18.3978 544.458 18.0175 542.865 17.2569 541.962C16.5438 541.059 15.284 540.607 13.4775 540.607H10.7677V562H2.92369V512.083ZM13.6201 533.476C15.1889 533.476 16.3536 533.072 17.1143 532.264C17.9225 531.456 18.3265 530.101 18.3265 528.199V524.349C18.3265 522.542 17.9938 521.235 17.3282 520.427C16.7102 519.618 15.7119 519.214 14.3332 519.214H10.7677V533.476H13.6201ZM14.2619 648.713C10.4112 648.713 7.46373 647.62 5.41952 645.433C3.37532 643.246 2.35321 640.156 2.35321 636.163V609.921C2.35321 605.927 3.37532 602.837 5.41952 600.65C7.46373 598.464 10.4112 597.37 14.2619 597.37C18.1126 597.37 21.0601 598.464 23.1043 600.65C25.1485 602.837 26.1706 605.927 26.1706 609.921V636.163C26.1706 640.156 25.1485 643.246 23.1043 645.433C21.0601 647.62 18.1126 648.713 14.2619 648.713ZM14.2619 641.582C16.9717 641.582 18.3265 639.942 18.3265 636.662V609.422C18.3265 606.141 16.9717 604.501 14.2619 604.501C11.5521 604.501 10.1973 606.141 10.1973 609.422V636.662C10.1973 639.942 11.5521 641.582 14.2619 641.582ZM1.06964 684.083H8.62845L12.1226 722.448H12.2652L15.9733 684.083H24.5305L28.2386 722.448H28.3812L31.8753 684.083H38.6497L33.5868 734H23.8174L20.2519 700.342H20.1093L16.5438 734H6.13262L1.06964 684.083Z" fill="white"/>
</mask>
<g mask="url(#mask0_135_57)">
<rect x="-74" y="331" width="311" height="76" fill="#E1EFEF"/>
</g>
<path fill-rule="evenodd" clip-rule="evenodd" d="M122.365 260.249C123.349 301.977 91.5906 314.401 58.9503 295.081L58.387 294.66L58.5973 295.434L54.2277 305.114C58.7651 310.958 62.1204 313.191 68.7198 316.383L77.6714 309.638C79.0021 310.143 79.8208 310.355 81.3972 310.625L85.6222 321.662C92.9847 322.486 96.9754 322.071 103.807 319.512L105.19 308.343C106.709 307.65 107.42 307.142 108.581 306.149L119.315 311.125C125.017 306.796 127.604 303.768 130.529 296.703L123.644 287.643C124.221 286.332 124.479 285.524 124.826 283.956L135.738 279.746C136.892 272.582 136.513 268.59 133.27 261.538L122.365 260.249Z" fill="url(#paint0_linear_135_57)"/>
<path d="M101.103 241.341C99.8562 240.799 99.107 240.59 97.6416 240.447L93.3776 229.605C85.4716 228.337 81.4851 228.854 75.0529 231.646L73.6155 242.885C71.9281 243.482 71.0528 243.863 69.7345 244.698L59.4202 240.048C53.5357 244.51 51.0001 247.605 48.2063 254.47L55.0911 263.531C54.5462 264.878 54.3075 265.675 53.9638 267.148L42.8574 271.318C42.0049 279.011 42.6496 282.988 45.52 289.565L56.5651 290.964C56.8599 291.722 57.1071 292.29 57.3826 292.831C62.4468 294.75 67.1279 296.297 71.453 297.468C76.8868 299.243 81.5549 300.037 85.6222 300.048C106.437 299.184 114.974 290.277 118.66 267.618C119.056 266.152 119.139 264.522 119.516 262.955C119.855 261.546 120.199 260.045 120.524 258.554L119.516 259.613C117.95 260.712 117.636 260.658 115.28 261.35C112.839 261.886 111.687 262.322 109.278 262.249C106.869 262.175 104.331 262.205 101.865 261.563C80.2932 256.747 67.6093 276.826 75.3872 289.432C75.7773 290.033 76.6805 290.975 77.1524 291.55C77.2599 291.611 77.4375 291.739 77.6419 291.891L78.9175 292.78C89.7126 297.377 108.351 284.2 115.633 268.25L118.66 262.249L116.339 268.25L114.221 273.193C113.247 275.173 112.646 276.32 111.396 278.488C110.323 280.435 109.688 281.54 107.926 283.767C106.366 285.419 105.315 286.432 103.152 288.373C101.361 290.012 100.044 290.826 97.6282 292.257C95.6864 293.452 94.3817 294.075 91.6267 295.081C89.7529 295.775 88.634 296.136 85.9782 296.515C83.9674 296.777 82.8269 296.833 80.742 296.515C78.9184 296.195 77.8968 295.992 76.0933 295.081C74.7686 294.242 73.9965 293.614 72.563 292.257C70.7174 290.152 70.0551 288.782 69.0326 286.255C61.972 254.47 97.6416 240.447 120.33 257.306C120.179 257.078 120.011 256.835 119.819 256.568L124.492 245.935C120.123 239.876 117.029 237.305 110 234.667L101.103 241.341Z" fill="url(#paint1_linear_135_57)"/>
<defs>
<linearGradient id="paint0_linear_135_57" x1="117.755" y1="238.637" x2="66.174" y2="315.478" gradientUnits="userSpaceOnUse">
<stop offset="0.399038" stop-color="#E1EFEF"/>
</linearGradient>
<linearGradient id="paint1_linear_135_57" x1="117.755" y1="238.637" x2="66.174" y2="315.478" gradientUnits="userSpaceOnUse">
<stop offset="0.399038" stop-color="#E1EFEF"/>
</linearGradient>
</defs>
</svg>
